<!DOCTYPE svg PUBLIC "-//W3C//DTD SVG 20010904//EN" "http://www.w3.org/TR/2001/REC-SVG-20010904/DTD/svg10.dtd">
<svg version="1.0" xmlns="http://www.w3.org/2000/svg" width="256px" height="256px" viewBox="0 0 2560 2560" preserveAspectRatio="xMidYMid meet">
<g id="layer1" fill="#fffffe" stroke="none">
 <path d="M965 2109 c-183 -34 -336 -119 -471 -262 -171 -179 -250 -414 -223 -659 22 -198 98 -349 248 -498 162 -159 322 -233 536 -247 386 -24 748 234 857 614 33 113 33 333 0 446 -106 367 -445 621 -822 616 -41 -1 -97 -5 -125 -10z m250 -131 c4 -3 -17 -94 -46 -202 l-53 -196 -31 0 c-65 0 -128 -31 -193 -96 l-63 -63 -47 14 c-26 7 -110 30 -187 50 -77 21 -143 41 -147 44 -11 10 37 106 88 178 25 35 72 86 105 113 74 62 223 135 314 155 67 14 247 16 260 3z m208 -64 c168 -85 291 -228 353 -409 22 -65 28 -103 32 -202 5 -141 3 -144 -76 -123 -59 16 -291 79 -313 86 -11 3 -18 21 -22 60 -7 69 -42 130 -105 185 l-48 41 48 181 c59 219 55 207 68 207 6 0 34 -12 63 -26z m-813 -569 c96 -26 180 -53 186 -61 6 -8 14 -36 18 -63 8 -60 54 -133 111 -176 l40 -30 -54 -202 -54 -202 -78 39 c-169 86 -286 222 -349 410 -27 79 -40 195 -33 278 5 51 9 62 22 58 9 -3 95 -26 191 -51z m954 -256 c105 -28 194 -53 198 -55 16 -10 -64 -153 -125 -223 -140 -162 -363 -253 -573 -236 l-80 7 42 157 c23 86 47 175 53 199 8 29 17 42 29 42 78 0 184 56 230 122 15 20 29 38 31 38 2 0 90 -23 195 -51z"/>
 </g>
<g id="layer2" fill="#2a150a" stroke="none">
 <path d="M955 1995 c-39 -9 -116 -38 -175 -67 -87 -44 -118 -66 -185 -133 -76 -77 -132 -155 -158 -224 -22 -59 -26 -57 293 -142 110 -29 115 -30 125 -12 5 10 31 39 56 64 48 48 116 79 175 79 17 0 36 6 42 13 5 6 34 101 63 210 39 146 49 201 41 209 -18 18 -198 20 -277 3z"/>
 <path d="M1282 1766 c-29 -106 -52 -200 -52 -208 0 -9 20 -32 45 -52 60 -49 95 -112 102 -180 3 -31 12 -61 19 -67 7 -6 53 -22 101 -35 194 -54 274 -74 293 -74 34 0 43 35 38 159 -4 92 -11 133 -32 196 -63 184 -199 341 -373 429 -89 44 -83 51 -141 -168z"/>
 <path d="M390 1405 c-19 -23 -16 -215 4 -295 39 -148 131 -293 247 -390 69 -57 198 -126 221 -118 13 5 118 370 118 410 0 8 -20 28 -44 45 -55 39 -91 100 -105 178 -6 32 -15 63 -20 68 -7 7 -388 116 -407 117 -1 0 -7 -7 -14 -15z"/>
 <path d="M1335 1123 c-54 -72 -98 -99 -194 -117 l-66 -12 -53 -195 c-29 -107 -51 -203 -50 -214 3 -17 14 -21 68 -28 257 -31 526 101 675 332 54 83 79 141 66 154 -8 8 -392 117 -412 117 -4 0 -19 -17 -34 -37z"/>
 </g>
<g id="layer3" fill="#ff7300" stroke="none">
 <path d="M915 2303 c-421 -89 -743 -406 -830 -816 -20 -90 -20 -324 0 -414 64 -304 261 -562 545 -716 36 -20 115 -53 175 -74 l110 -38 663 -3 664 -3 53 25 c73 33 129 87 165 158 25 51 30 73 30 133 0 70 -5 84 -199 566 -109 272 -214 529 -234 573 -57 121 -136 233 -234 326 -158 152 -308 233 -519 280 -108 24 -286 25 -389 3z m313 -213 c323 -53 574 -275 664 -587 33 -113 33 -333 0 -446 -151 -524 -745 -755 -1219 -476 -83 49 -222 190 -273 277 -120 204 -147 463 -71 688 125 372 513 606 899 544z"/>
 </g>

</svg>